<?xml version="1.0" encoding="UTF-8" standalone="no"?>
<!-- Created with Inkscape (http://www.inkscape.org/) -->

<svg
   xmlns:dc="http://purl.org/dc/elements/1.1/"
   xmlns:cc="http://creativecommons.org/ns#"
   xmlns:rdf="http://www.w3.org/1999/02/22-rdf-syntax-ns#"
   xmlns:svg="http://www.w3.org/2000/svg"
   xmlns="http://www.w3.org/2000/svg"
   xmlns:xlink="http://www.w3.org/1999/xlink"
   xmlns:sodipodi="http://sodipodi.sourceforge.net/DTD/sodipodi-0.dtd"
   xmlns:inkscape="http://www.inkscape.org/namespaces/inkscape"
   width="16"
   height="16"
   id="svg2"
   sodipodi:version="0.32"
   inkscape:version="0.48.2 r9819"
   version="1.0"
   sodipodi:docname="gear.svg"
   inkscape:output_extension="org.inkscape.output.svg.inkscape">
  <defs
     id="defs4">
    <linearGradient
       id="linearGradient11819">
      <stop
         style="stop-color:#eeeeec;stop-opacity:1;"
         offset="0"
         id="stop11821" />
      <stop
         style="stop-color:#c9c9c2;stop-opacity:1;"
         offset="1"
         id="stop11823" />
    </linearGradient>
    <linearGradient
       inkscape:collect="always"
       xlink:href="#linearGradient11819"
       id="linearGradient11825"
       x1="7.8968945"
       y1="591.01086"
       x2="10.81507"
       y2="593.82031"
       gradientUnits="userSpaceOnUse" />
    <linearGradient
       inkscape:collect="always"
       xlink:href="#linearGradient31615"
       id="linearGradient31621"
       x1="7.59835"
       y1="7.6808586"
       x2="12.40363"
       y2="12.335973"
       gradientUnits="userSpaceOnUse"
       gradientTransform="matrix(1.1245264,-0.29235211,0.29238268,1.1244088,-3.4864248,584.16138)" />
    <linearGradient
       id="linearGradient31615">
      <stop
         style="stop-color:#eeeeec;stop-opacity:1;"
         offset="0"
         id="stop31617" />
      <stop
         style="stop-color:#d2d2cc;stop-opacity:1;"
         offset="1"
         id="stop31619" />
    </linearGradient>
  </defs>
  <sodipodi:namedview
     id="base"
     pagecolor="#ffffff"
     bordercolor="#666666"
     borderopacity="1.0"
     gridtolerance="10000"
     guidetolerance="10"
     objecttolerance="10"
     inkscape:pageopacity="0.0"
     inkscape:pageshadow="2"
     inkscape:zoom="31.678384"
     inkscape:cx="-3.9582925"
     inkscape:cy="4.3961121"
     inkscape:document-units="px"
     inkscape:current-layer="layer1"
     width="512px"
     height="512px"
     inkscape:window-width="2560"
     inkscape:window-height="1468"
     inkscape:window-x="0"
     inkscape:window-y="0"
     showgrid="true"
     inkscape:window-maximized="1"
     inkscape:snap-global="false">
    <inkscape:grid
       type="xygrid"
       id="grid11295" />
  </sodipodi:namedview>
  <metadata
     id="metadata7">
    <rdf:RDF>
      <cc:Work
         rdf:about="">
        <dc:format>image/svg+xml</dc:format>
        <dc:type
           rdf:resource="http://purl.org/dc/dcmitype/StillImage" />
        <dc:title />
      </cc:Work>
    </rdf:RDF>
  </metadata>
  <g
     inkscape:label="Layer 1"
     inkscape:groupmode="layer"
     id="layer1"
     transform="translate(0,-583.2193)">
    <path
       inkscape:connector-curvature="0"
       d="m 10.031259,590.77322 c 0.302378,1.16285 -0.3952708,2.35062 -1.5582402,2.65297 -1.1629706,0.30234 -2.3508689,-0.39523 -2.6532473,-1.55807 -0.3023783,-1.16285 0.3952683,-2.35062 1.5582388,-2.65298 1.1629695,-0.30235 2.3508702,0.39523 2.6532487,1.55808 z m -4.0049292,-6.7562 c -0.6744402,0.17534 -1.0762282,0.8594 -0.9008701,1.53377 l 0.5143625,1.97807 c -0.044395,0.23464 -0.069897,0.44734 -0.1856518,0.5356 -0.092373,0.0704 -0.2538971,0.0725 -0.4283739,0.0708 l -1.9174153,-1.12597 c -0.6069995,-0.35645 -1.3935282,-0.15197 -1.750016,0.45496 -0.3564868,0.60694 -0.1519854,1.39339 0.455013,1.74984 l 1.869481,1.09782 c 0.1040495,0.1674 0.1736674,0.32087 0.1567411,0.44658 -0.017,0.12623 -0.1176721,0.25887 -0.2632613,0.39334 l -2.0543657,0.53409 c -0.67444137,0.17534 -1.07622826,0.8594 -0.90087019,1.53378 0.17535788,0.67436 0.85949029,1.07611 1.53393169,0.90077 l 1.9782781,-0.5143 c 0.2346621,0.0444 0.4473812,0.0699 0.5356588,0.18563 0.070443,0.0924 0.072498,0.25387 0.070764,0.42832 l -1.1260895,1.91721 c -0.356488,0.60695 -0.1519863,1.39339 0.4550131,1.74984 0.6069993,0.35645 1.3935267,0.15197 1.7500159,-0.45496 l 1.0979361,-1.86929 c 0.1674182,-0.1041 0.3208949,-0.17366 0.4466351,-0.15673 0.1262414,0.017 0.258888,0.11767 0.3933753,0.26324 l 0.5341456,2.05415 c 0.1753576,0.67437 0.8594916,1.07612 1.5339318,0.90078 0.6744409,-0.17535 1.0762299,-0.8594 0.9008709,-1.53378 l -0.514362,-1.97807 c 0.0444,-0.23463 0.0699,-0.44733 0.185652,-0.5356 0.09237,-0.0704 0.253899,-0.0725 0.428366,-0.0707 l 1.917417,1.12597 c 0.606999,0.35645 1.393527,0.15197 1.750015,-0.45497 0.356486,-0.60694 0.151986,-1.39338 -0.455013,-1.74983 l -1.869474,-1.09778 c -0.104038,-0.1674 -0.173668,-0.32086 -0.15674,-0.44659 0.017,-0.12623 0.117673,-0.25886 0.263262,-0.39333 l 2.054363,-0.5341 c 0.674441,-0.17533 1.07623,-0.8594 0.900873,-1.53376 -0.175363,-0.67438 -0.859494,-1.07612 -1.533934,-0.90078 l -1.978277,0.51431 c -0.234665,-0.0444 -0.447385,-0.0699 -0.535661,-0.18563 -0.07045,-0.0924 -0.0725,-0.25388 -0.07076,-0.42833 l 1.126086,-1.91722 c 0.356487,-0.60693 0.151985,-1.39337 -0.455013,-1.74983 -0.607,-0.35645 -1.393529,-0.15197 -1.750017,0.45497 l -1.0979351,1.86929 c -0.1674215,0.10398 -0.3208925,0.17365 -0.4466335,0.15672 -0.1262407,-0.017 -0.2588894,-0.11766 -0.3933752,-0.26324 l -0.5341457,-2.0542 c -0.175358,-0.67436 -0.8594914,-1.07611 -1.5339329,-0.90077 z"
       style="color:#000000;fill:none;stroke:#000000;stroke-width:1;stroke-miterlimit:4;stroke-opacity:1;stroke-dasharray:none;marker:none;visibility:visible;display:inline;overflow:visible;enable-background:accumulate"
       id="path31611" />
    <path
       id="path3643"
       style="color:#000000;fill:url(#linearGradient31621);fill-opacity:1;fill-rule:evenodd;stroke:#888a85;stroke-width:0.5;stroke-miterlimit:4;stroke-dasharray:none;marker:none;visibility:visible;display:inline;overflow:visible;enable-background:accumulate"
       d="m 9.8657688,590.27546 c 0.3023782,1.16285 -0.39527,2.35062 -1.5582395,2.65297 -1.1629706,0.30234 -2.3508697,-0.39523 -2.6532479,-1.55807 -0.3023783,-1.16285 0.3952687,-2.35064 1.5582395,-2.65298 1.1629692,-0.30235 2.3508695,0.39523 2.6532479,1.55808 z m -4.0049285,-6.7562 c -0.6744406,0.17534 -1.0762292,0.8594 -0.9008711,1.53378 l 0.5143626,1.97807 c -0.044393,0.23463 -0.069897,0.44732 -0.1856515,0.53559 -0.092378,0.0704 -0.2538964,0.0725 -0.4283735,0.0708 L 2.942891,586.51149 c -0.6069989,-0.35645 -1.3935281,-0.15197 -1.7500152,0.45496 -0.35648722,0.60695 -0.1519857,1.39339 0.455013,1.74984 l 1.8694803,1.09782 c 0.1040449,0.16741 0.1736721,0.32086 0.1567435,0.44658 -0.016996,0.12623 -0.1176734,0.25886 -0.263262,0.39334 l -2.0543656,0.53409 c -0.67444199,0.17534 -1.07622912,0.8594 -0.90087112,1.53378 0.17535795,0.67436 0.85949062,1.07611 1.53393262,0.90077 l 1.9782779,-0.51431 c 0.2346608,0.0444 0.4473806,0.0699 0.5356585,0.18563 0.070445,0.0924 0.072509,0.25387 0.070764,0.42833 l -1.126089,1.91721 c -0.3564881,0.60695 -0.1519868,1.39339 0.4550132,1.74984 0.6069985,0.35645 1.3935267,0.15197 1.7500153,-0.45497 l 1.0979358,-1.86928 c 0.1674183,-0.1041 0.3208949,-0.17365 0.4466348,-0.15673 0.1262415,0.017 0.2588881,0.11767 0.3933749,0.26324 l 0.5341457,2.05415 c 0.1753577,0.67437 0.859492,1.07612 1.5339329,0.90078 0.6744405,-0.17535 1.0762295,-0.85941 0.9008705,-1.53378 l -0.514362,-1.97807 c 0.04439,-0.23463 0.0699,-0.44733 0.185651,-0.53561 0.09238,-0.0704 0.253901,-0.0725 0.428366,-0.0708 l 1.917417,1.12598 c 0.606999,0.35645 1.393528,0.15197 1.750016,-0.45497 0.356486,-0.60694 0.151984,-1.39338 -0.455014,-1.74983 l -1.869474,-1.09778 c -0.104038,-0.1674 -0.173668,-0.32086 -0.156741,-0.44659 0.017,-0.12623 0.117673,-0.25886 0.263261,-0.39334 l 2.054366,-0.53409 c 0.674441,-0.17533 1.07623,-0.8594 0.900871,-1.53376 -0.175357,-0.67438 -0.859492,-1.07612 -1.533933,-0.90079 l -1.978277,0.51432 c -0.234664,-0.0444 -0.447385,-0.0699 -0.535661,-0.18563 -0.07044,-0.0924 -0.07251,-0.25388 -0.07076,-0.42833 l 1.12609,-1.91722 c 0.356487,-0.60693 0.151985,-1.39338 -0.455013,-1.74983 -0.607001,-0.35645 -1.393529,-0.15197 -1.750016,0.45497 l -1.0979368,1.86928 c -0.1674211,0.10409 -0.3208921,0.17366 -0.446634,0.15672 -0.126241,-0.017 -0.2588894,-0.11765 -0.3933747,-0.26323 l -0.5341456,-2.0542 c -0.175362,-0.67431 -0.8594959,-1.07606 -1.5339366,-0.90072 z"
       inkscape:connector-curvature="0" />
  </g>
</svg>
