<?xml version="1.0" encoding="UTF-8"?>
<svg width="16px" height="16px" viewBox="0 0 16 16" version="1.1" xmlns="http://www.w3.org/2000/svg" xmlns:xlink="http://www.w3.org/1999/xlink">
    <!-- Generator: Sketch 40.1 (33804) - http://www.bohemiancoding.com/sketch -->
    <title>Oval 8 Copy 2</title>
    <desc>Created with Sketch.</desc>
    <defs></defs>
    <g id="Page-1" stroke="none" stroke-width="1" fill="none" fill-rule="evenodd" opacity="0.5">
        <g id="бти_1232" transform="translate(-667.000000, -2400.000000)" fill="#2B87DB">
            <path d="M675,2416 C679.418278,2416 683,2412.41828 683,2408 C683,2403.58172 679.418278,2400 675,2400 C670.581722,2400 667,2403.58172 667,2408 C667,2412.41828 670.581722,2416 675,2416 Z M674,2411 L676,2411 L676,2413 L674,2413 L674,2411 Z M674.134433,2409.4305 C674.130137,2409.19421 674.127989,2409.05028 674.127989,2408.99873 C674.127989,2408.46598 674.216062,2408.02776 674.392211,2407.68406 C674.568361,2407.34035 674.920654,2406.95369 675.449103,2406.52405 C675.977551,2406.09442 676.293326,2405.81302 676.396438,2405.67983 C676.555402,2405.46931 676.634883,2405.23731 676.634883,2404.98383 C676.634883,2404.63153 676.494181,2404.32972 676.212771,2404.07838 C675.931362,2403.82705 675.552216,2403.70138 675.075324,2403.70138 C674.615617,2403.70138 674.231101,2403.83242 673.921766,2404.09449 C673.61243,2404.35657 673.399765,2404.75612 673.283764,2405.29316 L671.621094,2405.08694 C671.668353,2404.3179 671.995943,2403.66486 672.603874,2403.12782 C673.211804,2402.59078 674.009835,2402.32227 674.997991,2402.32227 C676.037702,2402.32227 676.864733,2402.594 677.479108,2403.13749 C678.093482,2403.68098 678.400665,2404.3136 678.400665,2405.03538 C678.400665,2405.43494 678.287888,2405.81301 678.062331,2406.16961 C677.836774,2406.5262 677.354518,2407.01168 676.61555,2407.62606 C676.233177,2407.94398 675.995808,2408.19961 675.903437,2408.39295 C675.811066,2408.58628 675.769178,2408.93213 675.77777,2409.4305 L674.134433,2409.4305 Z" id="Oval-8-Copy-2"></path>
        </g>
    </g>
</svg>